<?xml version="1.0" encoding="UTF-8"?>
<svg width="220px" height="64px" viewBox="0 0 220 64" version="1.1" xmlns="http://www.w3.org/2000/svg" xmlns:xlink="http://www.w3.org/1999/xlink">
    <title>1A4EA67E-0A60-4B14-91A9-0A913B217DA9</title>
    <defs>
        <radialGradient cx="66.7586617%" cy="42.2724185%" fx="66.7586617%" fy="42.2724185%" r="85.5001698%" id="radialGradient-1">
            <stop stop-color="#FFB335" offset="0%"></stop>
            <stop stop-color="#FF8A00" offset="100%"></stop>
        </radialGradient>
    </defs>
    <g id="Page-1" stroke="none" stroke-width="1" fill="none" fill-rule="evenodd">
        <g id="swap" transform="translate(-476.000000, -161.000000)">
            <g id="convertr" transform="translate(476.000000, 161.000000)">
                <path d="M15.5925,50.735 C20.7375,50.735 25.2,48.005 27.4575,43.91 L21.5775,40.55 C20.5275,42.7025 18.27,44.015 15.54,44.015 C11.4975,44.015 8.505,41.0225 8.505,36.875 C8.505,32.675 11.4975,29.6825 15.54,29.6825 C18.2175,29.6825 20.475,31.0475 21.525,33.2 L27.3525,29.7875 C25.2,25.745 20.7375,23.015 15.5925,23.015 C7.6125,23.015 1.7325,29.0525 1.7325,36.875 C1.7325,44.6975 7.6125,50.735 15.5925,50.735 Z M43.7325,50.735 C51.45,50.735 57.645,44.6975 57.645,36.875 C57.645,29.0525 51.45,23.015 43.7325,23.015 C36.015,23.015 29.8725,29.0525 29.8725,36.875 C29.8725,44.6975 36.015,50.735 43.7325,50.735 Z M43.7325,44.12 C39.7425,44.12 36.645,41.1275 36.645,36.875 C36.645,32.6225 39.7425,29.63 43.7325,29.63 C47.775,29.63 50.8725,32.6225 50.8725,36.875 C50.8725,41.1275 47.775,44.12 43.7325,44.12 Z M69.195,50 L69.195,35.825 C69.195,31.2575 71.6625,29.315 74.97,29.315 C78.015,29.315 80.1675,31.1525 80.1675,34.7225 L80.1675,50 L86.94,50 L86.94,33.8825 C86.94,26.9 82.5825,23.015 77.0175,23.015 C73.5,23.015 70.77,24.3275 69.195,26.69 L69.195,23.75 L62.4225,23.75 L62.4225,50 L69.195,50 Z M107.4675,50 L117.4425,23.75 L109.9875,23.75 L103.5825,42.125 L97.23,23.75 L89.775,23.75 L99.75,50 L107.4675,50 Z M133.7175,50.735 C138.7575,50.735 142.695,48.6875 145.1625,45.1175 L139.7025,41.9675 C138.5475,43.49 136.4475,44.5925 133.8225,44.5925 C130.2525,44.5925 127.365,43.1225 126.42,39.6575 L146.2125,39.6575 C146.37,38.765 146.475,37.8725 146.475,36.875 C146.475,29.1575 140.9625,23.015 133.1925,23.015 C124.95,23.015 119.3325,29.0525 119.3325,36.875 C119.3325,44.6975 124.8975,50.735 133.7175,50.735 Z M139.7025,34.4075 L126.315,34.4075 C127.1025,31.0475 129.57,29.105 133.1925,29.105 C136.0275,29.105 138.8625,30.6275 139.7025,34.4075 Z M157.9725,50 L157.9725,37.4525 C157.9725,31.94 162.435,30.365 165.9525,30.785 L165.9525,23.225 C162.645,23.225 159.3375,24.695 157.9725,28.265 L157.9725,23.75 L151.2,23.75 L151.2,50 L157.9725,50 Z M184.905,50 L184.905,43.8575 C181.02,44.0675 178.9725,44.015 178.9725,41.18 L178.9725,30.26 L184.905,30.26 L184.905,23.75 L178.9725,23.75 L178.9725,16.4 L172.2,18.4475 L172.2,23.75 L167.6325,23.75 L167.6325,30.26 L172.2,30.26 L172.2,41.18 C172.2,48.2675 175.4025,51.05 184.905,50 Z M196.875,50 L196.875,37.4525 C196.875,31.94 201.3375,30.365 204.855,30.785 L204.855,23.225 C201.5475,23.225 198.24,24.695 196.875,28.265 L196.875,23.75 L190.1025,23.75 L190.1025,50 L196.875,50 Z M212.73,50.6825 C215.1975,50.6825 217.1925,48.6875 217.1925,46.22 C217.1925,43.7525 215.1975,41.7575 212.73,41.7575 C210.2625,41.7575 208.2675,43.7525 208.2675,46.22 C208.2675,48.6875 210.2625,50.6825 212.73,50.6825 Z" id="convertr." fill="#9696CD" fill-rule="nonzero"></path>
                <circle id="Oval-Copy-3" fill="url(#radialGradient-1)" cx="44.375" cy="36.875" r="14.375"></circle>
            </g>
        </g>
    </g>
</svg>