<svg xmlns="http://www.w3.org/2000/svg" xmlns:xlink="http://www.w3.org/1999/xlink" viewBox="0 0 2857 657">
  <defs/>
  <defs>
    <filter id="a" width="115.3%" height="155%" x="-7.6%" y="-29.3%" filterUnits="objectBoundingBox">
      <feOffset dy="-8" in="SourceAlpha" result="shadowOffsetOuter1"/>
      <feGaussianBlur in="shadowOffsetOuter1" result="shadowBlurOuter1" stdDeviation="40"/>
      <feColorMatrix in="shadowBlurOuter1" values="0 0 0 0 0 0 0 0 0 0 0 0 0 0 0 0 0 0 0.289117133 0"/>
    </filter>
    <filter id="c" width="112.6%" height="173.6%" x="-6.3%" y="-39.2%" filterUnits="objectBoundingBox">
      <feOffset dy="-8" in="SourceAlpha" result="shadowOffsetOuter1"/>
      <feGaussianBlur in="shadowOffsetOuter1" result="shadowBlurOuter1" stdDeviation="40"/>
      <feColorMatrix in="shadowBlurOuter1" values="0 0 0 0 0 0 0 0 0 0 0 0 0 0 0 0 0 0 0.289117133 0"/>
    </filter>
    <filter id="e" width="111.1%" height="155%" x="-5.5%" y="-29.3%" filterUnits="objectBoundingBox">
      <feOffset dy="-8" in="SourceAlpha" result="shadowOffsetOuter1"/>
      <feGaussianBlur in="shadowOffsetOuter1" result="shadowBlurOuter1" stdDeviation="40"/>
      <feColorMatrix in="shadowBlurOuter1" values="0 0 0 0 0 0 0 0 0 0 0 0 0 0 0 0 0 0 0.289117133 0"/>
    </filter>
    <filter id="g" width="109.4%" height="173.6%" x="-4.7%" y="-39.2%" filterUnits="objectBoundingBox">
      <feOffset dy="-8" in="SourceAlpha" result="shadowOffsetOuter1"/>
      <feGaussianBlur in="shadowOffsetOuter1" result="shadowBlurOuter1" stdDeviation="40"/>
      <feColorMatrix in="shadowBlurOuter1" values="0 0 0 0 0 0 0 0 0 0 0 0 0 0 0 0 0 0 0.289117133 0"/>
    </filter>
    <path id="b" d="M135 291c7-22.6 32.2-28.1 49.2-34 57-19.4 117-19.9 175.9-23.9 33.1-2.2 66.4-5.4 99-13.4 37-9 72.7-24.3 109.7-32.4 67.5-14.8 137.2-5.6 205.1-17 53.2-9 104.4-30.4 157-43.3 82-20 166.5-19.3 248.8-36.9 59-12.6 116.4-34.5 175.1-48.9 74.5-18.2 150.6-24 226.5-30L1723.9.4c9.4-.7 20.1-.8 26.5 7.5 4.6 6 5.6 14.9 5.6 23V451H135.1l-.1-160z"/>
    <path id="d" d="M55 338.4c8.5-16.8 39-21 59.5-25.3 69.2-14.6 141.8-15 213-17.9 40.2-1.7 80.5-4 120-10 44.7-6.8 88-18.2 132.9-24.3 81.7-11 166-4.1 248.3-12.7 64.4-6.6 126.4-22.7 190.2-32.3 99.2-15 201.6-14.4 301.2-27.6 71.5-9.4 141-25.8 212.1-36.5 90.2-13.6 182.4-18 274.2-22.4l172.8-8.2c11.3-.5 24.3-.6 32 5.6 5.6 4.5 6.8 11.1 6.8 17.3V458H55.2L55 338.4z"/>
    <path id="f" d="M0 315c9.7-22.6 44.6-28.1 68-34 79.1-19.4 162.1-19.9 243.6-23.9 45.9-2.2 92-5.4 137.1-13.4 51-9 100.6-24.3 151.9-32.4 93.4-14.8 189.8-5.6 283.8-17 73.7-9 144.6-30.4 217.5-43.3 113.4-20 230.4-19.3 344.3-36.9 81.7-12.6 161.2-34.5 242.5-48.9 103-18.2 208.4-24 313.4-30l197.5-10.9c13-.7 27.8-.8 36.7 7.5 6.4 6 7.7 14.9 7.7 23V475H.2L0 315z"/>
    <path id="h" d="M55 377.4c11.4-16.8 52.5-21 80.1-25.3 93.1-14.6 190.8-15 286.7-17.9 54.1-1.7 108.3-4 161.5-10 60.1-6.8 118.4-18.2 178.8-24.3 110-11 223.5-4.1 334.2-12.7 86.7-6.6 170.2-22.7 256-32.3 133.5-15 271.3-14.4 405.5-27.6 96.1-9.4 189.7-25.8 285.4-36.5 121.4-13.6 245.4-18 369-22.4l232.5-8.2c15.3-.5 32.8-.6 43.2 5.6 7.5 4.5 9.1 11.1 9.1 17.3V497H55.2L55 377.4z"/>
  </defs>
  <g fill="none" fill-rule="evenodd">
    <g transform="translate(80 88)">
      <use fill="#000" filter="url(#a)" xlink:href="#b"/>
      <use fill="#1A1D2A" xlink:href="#b"/>
    </g>
    <g transform="matrix(-1 0 0 1 2153 88)">
      <use fill="#000" filter="url(#c)" xlink:href="#d"/>
      <use fill="#1A1D2A" xlink:href="#d"/>
    </g>
    <g transform="translate(80 88)">
      <use fill="#000" filter="url(#e)" xlink:href="#f"/>
      <use fill="#1A1D2A" xlink:href="#f"/>
    </g>
    <g transform="translate(80 88)">
      <use fill="#000" filter="url(#g)" xlink:href="#h"/>
      <use fill="#1A1D2A" xlink:href="#h"/>
    </g>
  </g>
</svg>