<?xml version="1.0" encoding="UTF-8"?>
<svg width="14px" height="14px" viewBox="0 0 14 14" version="1.1" xmlns="http://www.w3.org/2000/svg" xmlns:xlink="http://www.w3.org/1999/xlink">
    <title>Tooltip</title>
    <g id="Page-1" stroke="none" stroke-width="1" fill="none" fill-rule="evenodd">
        <g id="swap" transform="translate(-874.000000, -711.000000)">
            <g id="icon-tooltip" transform="translate(875.000000, 712.000000)">
                <path d="M6,0 C5.17307077,0 4.3942359,0.156250256 3.66346174,0.468750769 C2.93268882,0.781251282 2.2956759,1.20913231 1.75240369,1.75240205 C1.2091319,2.2956759 0.781251692,2.93268923 0.468749949,3.66346256 C0.156248451,4.3942359 0,5.17307077 0,6 C0,6.82692923 0.156248451,7.6057641 0.468749949,8.33653826 C0.781251692,9.06731118 1.2091319,9.7043241 1.75240369,10.2475963 C2.2956759,10.7908681 2.93268882,11.2187483 3.66346174,11.5312501 C4.3942359,11.8437515 5.17307077,12 6,12 C6.82692923,12 7.6057641,11.8437515 8.33653744,11.5312501 C9.06731077,11.2187483 9.7043241,10.7908681 10.2475979,10.2475963 C10.7908677,9.7043241 11.2187487,9.06731118 11.5312492,8.33653826 C11.8437497,7.6057641 12,6.82692923 12,6 C12,5.17307077 11.8437497,4.3942359 11.5312492,3.66346256 C11.2187487,2.93268923 10.7908677,2.2956759 10.2475979,1.75240205 C9.7043241,1.20913231 9.06731077,0.781251282 8.33653744,0.468750769 C7.6057641,0.156250256 6.82692923,0 6,0 Z" id="Path" stroke="#9696CD" stroke-width="0.8"></path>
                <g id="Group-5" transform="translate(4.000000, 2.400000)" fill="#9696CD">
                    <path d="M3.17094085,5.85600038 C2.87386303,6.22933566 2.55096097,6.54666589 2.20221815,6.80800017 C1.85348084,7.06933491 1.42078999,7.2 0.904140088,7.2 C0.555397269,7.14666645 0.306760536,7.02933429 0.158224378,6.84800033 C0.009688219,6.66666591 -0.0258352507,6.46400135 0.0516649904,6.24000027 L1.40787237,2.59200086 C1.42078999,2.5386664 1.41433118,2.49333279 1.38849593,2.45600004 C1.36266619,2.41866729 1.32391331,2.38933538 1.27224832,2.36799978 C1.22058333,2.35733653 1.15277682,2.37333368 1.06881777,2.41600034 C0.984864224,2.45866699 0.904140088,2.51733535 0.826639847,2.59200086 L0.0129176253,3.40800119 C0,3.33333568 -0.00322940633,3.25066933 0.00322940633,3.16000212 C0.009688219,3.06933491 0.0129176253,3.00267025 0.0129176253,2.95999904 C0.309989943,2.57599915 0.678098177,2.25333457 1.11725335,1.99200074 C1.55640853,1.73066691 1.95035201,1.6 2.29908932,1.6 C2.6220024,1.6320034 2.8544921,1.74133472 2.99656944,1.92800304 C3.13864679,2.11467136 3.18385297,2.32533313 3.13218798,2.560002 L1.77598611,6.24000027 C1.76306849,6.27200049 1.7695273,6.30666675 1.79535704,6.34400041 C1.82119229,6.38133408 1.85993966,6.41066689 1.91160465,6.43200022 C1.96326964,6.44266711 2.03431106,6.42666723 2.12472342,6.38400012 C2.21513578,6.34133346 2.29908932,6.27733394 2.37658956,6.19200063 L3.19031178,5.3920029 C3.20322941,5.46666841 3.20322941,5.5519999 3.19031178,5.64800056 C3.17739416,5.74400121 3.17094085,5.81333373 3.17094085,5.85600038 Z" id="Path"></path>
                    <path d="M3.2,1.6 C2.97777778,1.6 2.7888877,1.52701948 2.63333452,1.38105364 C2.47777659,1.2350878 2.4,1.03859994 2.4,0.79158046 C2.4,0.55579023 2.47777659,0.364912197 2.63333452,0.218951151 C2.7888877,0.0729853137 2.97777778,0 3.2,0 C3.42222222,0 3.6111123,0.0729853137 3.76666548,0.218951151 C3.92222341,0.364912197 4,0.55579023 4,0.79158046 C4,1.03859994 3.92222341,1.2350878 3.76666548,1.38105364 C3.6111123,1.52701948 3.42222222,1.6 3.2,1.6 Z" id="Path"></path>
                </g>
            </g>
        </g>
    </g>
</svg>