<?xml version="1.0" encoding="UTF-8"?>
<svg width="271px" height="36px" viewBox="0 0 271 36" version="1.1" xmlns="http://www.w3.org/2000/svg" xmlns:xlink="http://www.w3.org/1999/xlink">
    <title>31EB5397-5F99-4B54-83EB-768DDA8D4DF9</title>
    <g id="Home" stroke="none" stroke-width="1" fill="none" fill-rule="evenodd">
        <g id="Look-and-feel" transform="translate(-56.000000, -56.000000)" fill="#00EF79">
            <g id="logo-liquid-nft" transform="translate(56.000000, 56.000000)">
                <path d="M121.387724,3.5563224 L119.823462,3.5563224 C119.475702,3.5563224 119.188751,3.66939369 118.963265,3.89520759 C118.736465,4.12167888 118.624052,4.39055191 118.624052,4.70347015 L118.624052,30.2536391 C118.624052,30.532373 118.501777,30.6707538 118.259199,30.6707538 C117.980465,30.6707538 117.841756,30.532373 117.841756,30.2536391 L117.841756,4.70347015 C117.841756,4.18183019 118.032399,3.73053108 118.415659,3.34760067 C118.797603,2.96565634 119.26698,2.77402679 119.823462,2.77402679 L121.387724,2.77402679 C121.63063,2.77402679 121.752577,2.89630157 121.752577,3.13920764 C121.752577,3.41794154 121.63063,3.5563224 121.387724,3.5563224 L121.387724,3.5563224 Z M121.387724,0.42746867 L119.823462,0.42746867 C118.606302,0.42746867 117.5811,0.844912124 116.746871,1.67914164 C115.912641,2.51337115 115.495527,3.52213805 115.495527,4.70347015 L115.495527,31.2965903 C115.495527,32.5137502 115.912641,33.5386232 116.746871,34.3728527 C117.5811,35.2070822 118.606302,35.6245257 119.823462,35.6245257 L121.387724,35.6245257 C122.569057,35.6245257 123.577823,35.2070822 124.412053,34.3728527 C125.246282,33.5386232 125.663397,32.5137502 125.663397,31.2965903 L125.663397,4.70347015 C125.663397,3.52213805 125.246282,2.51337115 124.412053,1.67914164 C123.577823,0.844912124 122.569057,0.42746867 121.387724,0.42746867 L121.387724,0.42746867 Z M25.8109232,30.1494426 C25.5673597,30.1494426 25.446071,30.010733 25.446071,29.7323278 C25.446071,29.6978148 25.4368675,29.6718478 25.4197754,29.6537695 C25.4020258,29.6370061 25.3938084,29.6107104 25.3938084,29.5758687 C25.3237962,28.9158478 24.9415232,28.58518 24.2466606,28.58518 L12.6709865,28.58518 C12.3922527,28.58518 12.2538718,28.4553453 12.2538718,28.1956757 C12.2538718,27.9688757 12.3922527,27.855147 12.6709865,27.855147 L24.2466606,27.855147 C24.8021563,27.855147 25.2715336,28.0293557 25.654464,28.3764583 C26.0367371,28.7242183 26.2280379,29.1765035 26.2280379,29.7323278 C26.2280379,30.010733 26.088671,30.1494426 25.8109232,30.1494426 L25.8109232,30.1494426 Z M9.80278846,28.58518 C9.52438326,28.58518 9.3856737,28.4553453 9.3856737,28.1956757 C9.3856737,27.9688757 9.52438326,27.855147 9.80278846,27.855147 C10.0456945,27.855147 10.1679693,27.9688757 10.1679693,28.1956757 C10.1679693,28.4553453 10.0456945,28.58518 9.80278846,28.58518 L9.80278846,28.58518 Z M5.89229652,3.608585 L4.328034,3.608585 C4.01511576,3.608585 3.73638186,3.7216563 3.49380449,3.9471415 C3.24991233,4.17394149 3.12862364,4.44281452 3.12862364,4.75540406 L3.12862364,29.7842617 C3.12862364,30.0629956 3.00634886,30.2013765 2.76344279,30.2013765 C2.48503759,30.2013765 2.34632803,30.0629956 2.34632803,29.7842617 L2.34632803,4.75540406 C2.34632803,4.19990845 2.5369715,3.73874847 2.92023061,3.37389632 C3.30217493,3.00871547 3.7715523,2.8262894 4.328034,2.8262894 L5.89229652,2.8262894 C6.17004433,2.8262894 6.30941128,2.94856417 6.30941128,3.19147024 C6.30941128,3.46987545 6.17004433,3.608585 5.89229652,3.608585 L5.89229652,3.608585 Z M24.2466606,25.5085889 L10.1679693,25.5085889 L10.1679693,4.75540406 C10.1679693,3.57407196 9.75085455,2.56563376 8.91662503,1.73140424 C8.08239552,0.896846034 7.07362862,0.479731276 5.89229652,0.479731276 L4.328034,0.479731276 C3.11087408,0.479731276 2.0856724,0.896846034 1.25144288,1.73140424 C0.417213366,2.56563376 9.86086898e-05,3.57407196 9.86086898e-05,4.75540406 L9.86086898e-05,31.3485242 C9.86086898e-05,32.5308424 0.417213366,33.5386232 1.25144288,34.3728527 C2.0856724,35.2070822 3.11087408,35.6245257 4.328034,35.6245257 L24.2466606,35.6245257 C25.4631632,35.6245257 26.4886936,35.2070822 27.3232518,34.3728527 C28.1574813,33.5386232 28.574596,32.5308424 28.574596,31.3485242 L28.574596,29.7842617 C28.574596,28.6029296 28.1574813,27.5941627 27.3232518,26.7599332 C26.4886936,25.9257037 25.4631632,25.5085889 24.2466606,25.5085889 L24.2466606,25.5085889 Z M35.7178095,3.5563224 L34.1532183,3.5563224 C33.8054583,3.5563224 33.5188357,3.66939369 33.2930218,3.89520759 C33.0665506,4.12167888 32.9541366,4.39055191 32.9541366,4.70347015 L32.9541366,30.2536391 C32.9541366,30.532373 32.8318619,30.6707538 32.5892845,30.6707538 C32.3105506,30.6707538 32.171841,30.532373 32.171841,30.2536391 L32.171841,4.70347015 C32.171841,4.18183019 32.3624845,3.73053108 32.7454149,3.34760067 C33.1276879,2.96565634 33.5970653,2.77402679 34.1532183,2.77402679 L35.7178095,2.77402679 C35.9607156,2.77402679 36.0826617,2.89630157 36.0826617,3.13920764 C36.0826617,3.41794154 35.9607156,3.5563224 35.7178095,3.5563224 L35.7178095,3.5563224 Z M35.7178095,0.42746867 L34.1532183,0.42746867 C32.9360584,0.42746867 31.9111854,0.844912124 31.0769559,1.67914164 C30.2427264,2.51337115 29.8256116,3.52213805 29.8256116,4.70347015 L29.8256116,31.2965903 C29.8256116,32.5137502 30.2427264,33.5386232 31.0769559,34.3728527 C31.9111854,35.2070822 32.9360584,35.6245257 34.1532183,35.6245257 L35.7178095,35.6245257 C36.8991416,35.6245257 37.9075798,35.2070822 38.7418093,34.3728527 C39.5763676,33.5386232 39.9934823,32.5137502 39.9934823,31.2965903 L39.9934823,4.70347015 C39.9934823,3.52213805 39.5763676,2.51337115 38.7418093,1.67914164 C37.9075798,0.844912124 36.8991416,0.42746867 35.7178095,0.42746867 L35.7178095,0.42746867 Z M70.8616179,19.7205875 C70.7574213,19.964151 70.5832127,20.051584 70.3403066,19.9815719 C70.1660979,19.9122171 70.079651,19.7909284 70.079651,19.616391 L70.079651,19.3557354 C70.322557,17.6869476 70.1578805,16.0967182 69.5843066,14.5847183 C69.0107328,13.0723897 68.0801954,11.7605654 66.7946668,10.6479307 C66.6201294,10.4740507 66.6030372,10.2827498 66.7424042,10.0743568 C66.811759,10.0401724 66.8548181,10.0138768 66.8725677,9.99579853 C66.8899885,9.97903506 66.9330477,9.95273941 67.0030598,9.91789767 C67.0724146,9.91789767 67.1766111,9.95273941 67.3159781,10.0220942 C68.7060319,11.2392541 69.7144701,12.7075375 70.3403066,14.4282591 C70.9661431,16.1489808 71.1393657,17.9137476 70.8616179,19.7205875 L70.8616179,19.7205875 Z M67.4724372,17.7914729 C66.7424042,16.8527181 65.7947747,16.3143147 64.6305348,16.1749477 C63.4656374,16.0365669 62.3967192,16.3143147 61.4237802,17.0091772 L60.2243698,17.9998659 C59.2859438,18.6957145 58.7294621,19.6344693 58.5559108,20.8158014 C58.4858986,21.4071248 58.5207403,21.9718239 58.660436,22.510556 C58.7988168,23.0496169 59.0594725,23.5452899 59.4424029,23.996589 L60.5376167,25.4563263 L58.868829,25.4563263 C57.8258778,25.4563263 56.8522813,25.2656828 55.948697,24.8827524 C55.0444553,24.5008081 54.2539423,23.9702934 53.5761719,23.292523 C52.8984015,22.6144239 52.3682155,21.8242396 51.9859425,20.9199979 C51.6030121,20.0164136 51.4123686,19.0605667 51.4123686,18.0521285 C51.4123686,17.0091772 51.6030121,16.0365669 51.9859425,15.1319965 C52.3682155,14.2284122 52.8984015,13.4375705 53.5761719,12.7598001 C54.2539423,12.081701 55.0444553,11.5521724 55.948697,11.1692419 C56.8522813,10.7872976 57.8258778,10.5956681 58.868829,10.5956681 L60.4330915,10.5956681 C60.6066428,10.5956681 60.7982724,10.6045428 61.0066654,10.621635 C61.2153871,10.6397133 61.4237802,10.6656802 61.6325019,10.6998646 C62.5709279,10.8392315 63.4222496,11.143275 64.187453,11.6123237 C64.9516704,12.081701 65.6123486,12.6552749 66.1688303,13.3330453 C66.7246546,14.0111444 67.1506442,14.7760191 67.4464702,15.6273408 C67.7413102,16.4796486 67.8718024,17.3743581 67.837618,18.3127841 L67.4724372,17.7914729 Z M63.45742,27.5422288 C62.9702931,28.0987105 62.3625349,28.4283922 61.6325019,28.5329174 L60.4330915,28.58518 L58.868829,28.58518 C56.5393631,28.58518 54.4366971,27.8899888 52.5595163,26.4992776 C52.4553198,26.4650932 52.4030572,26.3779889 52.4030572,26.2386219 C52.4030572,26.0999124 52.4372416,25.9957158 52.5072537,25.9257037 C52.5766085,25.8563489 52.6459633,25.8215072 52.7159755,25.8215072 C52.7853302,25.7873228 52.8895268,25.804415 53.0288937,25.8734411 C54.8015493,27.1602845 56.7480848,27.8028844 58.868829,27.8028844 L60.4330915,27.8028844 L61.5279767,27.7506218 C62.083801,27.681267 62.5186653,27.4380323 62.8319123,27.0205888 C63.1786861,26.5692897 63.3180531,26.0821628 63.249027,25.5608515 C63.1786861,25.2137489 63.0403053,24.9008307 62.8319123,24.6220968 L61.267321,22.5884569 C60.9195611,22.1371578 60.7982724,21.6500309 60.9024689,21.1283909 C60.971495,20.5728953 61.2153871,20.1377023 61.6325019,19.8251127 L62.8319123,18.886358 L63.4051574,18.6257024 L63.4051574,18.5737685 C63.6480635,18.5044137 63.8222722,18.591518 63.9267974,18.8340954 C63.9267974,18.9734623 63.9087191,19.0779876 63.8745348,19.1470136 C63.8393644,19.2515389 63.7703383,19.321551 63.6661418,19.3557354 C63.5616166,19.3557354 63.5096826,19.3905771 63.5096826,19.4599319 L63.3528948,19.5121945 L62.1015506,20.4506205 C61.8579871,20.694184 61.7186201,20.9551683 61.6844358,21.2329161 C61.6495941,21.5113213 61.7186201,21.80649 61.8931575,22.1194082 L63.45742,24.1007855 C63.8045226,24.552742 63.9961522,25.0050272 64.0309939,25.4563263 C64.1003487,26.2567002 63.9087191,26.9515627 63.45742,27.5422288 L63.45742,27.5422288 Z M56.8874517,32.8085902 C56.8174396,33.0173119 56.6958222,33.1215085 56.5222709,33.1215085 L56.3138779,33.0692459 C54.6792745,32.791498 53.1590572,32.2790616 51.7512538,31.5309503 C50.3434504,30.7838251 49.0921061,29.8542739 47.9968923,28.7416392 C46.9020071,27.6293331 45.989548,26.3608967 45.259515,24.935015 C44.529482,23.5101195 44.0420264,21.9806987 43.799449,20.346424 C43.4865308,18.3308624 43.5647604,16.3573738 44.0341377,14.4282591 C44.5031864,12.4988158 45.3456333,10.6998646 46.5627932,9.03140555 C47.7796245,7.36294652 49.230487,6.01595182 50.9170243,4.99009275 C52.6025755,3.96521976 54.4708814,3.29566676 56.5222709,2.98274852 C56.8000187,2.91339374 56.9393856,3.01759025 56.9393856,3.29566676 C57.0087404,3.57407196 56.9045439,3.71278152 56.6267961,3.71278152 C54.6450901,4.02569976 52.8464676,4.69525276 51.2299425,5.72012575 C49.6134174,6.74598482 48.2575479,8.00653257 47.1626628,9.50045422 C46.0677776,10.9956906 45.285482,12.6641497 44.8161046,14.50616 C44.347056,16.3491564 44.2684977,18.2605215 44.5817446,20.2422275 C44.824322,21.771977 45.285482,23.2142934 45.9632524,24.5701629 C46.6413515,25.9257037 47.501548,27.125114 48.5444992,28.1677366 C49.5874504,29.2106878 50.7687825,30.0889626 52.090139,30.801246 C53.410838,31.5141868 54.8357336,32.0092024 56.3658118,32.2872789 L56.5745335,32.2872789 C56.6087178,32.2872789 56.6267961,32.3050285 56.6267961,32.3392129 L56.67873,32.3392129 C56.9216361,32.4095537 56.9916483,32.5656841 56.8874517,32.8085902 L56.8874517,32.8085902 Z M60.0682394,2.77402679 C60.3459872,2.77402679 60.4853541,2.91339374 60.4853541,3.19147024 C60.4853541,3.43470501 60.3459872,3.5563224 60.0682394,3.5563224 C59.8246759,3.5563224 59.7030585,3.43470501 59.7030585,3.19147024 C59.7030585,2.91339374 59.8246759,2.77402679 60.0682394,2.77402679 L60.0682394,2.77402679 Z M75.1376193,8.37960211 C73.8859464,6.45015875 72.2868421,4.82574493 70.3403066,3.50405979 C67.3501624,1.45365644 64.0480861,0.42746867 60.4330915,0.42746867 L58.868829,0.42746867 C56.4351665,0.42746867 54.1497458,0.888957338 52.0119094,1.80963381 C49.874073,2.73096766 48.0051097,3.99151541 46.4066628,5.58996228 C44.8072299,7.18906653 43.5470108,9.0573725 42.6260056,11.1952089 C41.7046718,13.3330453 41.2444979,15.6194521 41.2444979,18.0521285 C41.2444979,20.485791 41.7046718,22.7712117 42.6260056,24.9087194 C43.5470108,27.0468845 44.8072299,28.9069731 46.4066628,30.4883277 C48.0051097,32.0706685 49.874073,33.3220128 52.0119094,34.2423606 C54.1497458,35.1640231 56.4351665,35.6245257 58.868829,35.6245257 L60.4330915,35.6245257 C61.2324793,35.6245257 61.8842827,35.5982301 62.3885018,35.5462961 C62.8920636,35.4940335 63.3791905,35.415804 63.8485678,35.3116075 C64.3179452,35.2070822 64.8129608,35.0598266 65.3346008,34.8681971 C65.8559121,34.6775536 66.5159329,34.4428649 67.3159781,34.1644597 C68.1843919,35.1028857 69.2273432,35.5722631 70.4445031,35.5722631 C70.9309726,35.5722631 71.40035,35.5029083 71.8523065,35.3638701 C72.3039343,35.2251605 72.7210491,34.9986892 73.1039795,34.685771 L74.3553237,33.7473449 C75.258908,32.9827989 75.7973115,32.0266233 75.9718489,30.8791469 C76.1102297,29.7323278 75.8324819,28.6722844 75.1376193,27.6986879 L75.0853567,27.6986879 C76.3708854,25.7521524 77.2402853,23.6836708 77.6925705,21.4935718 C78.1438696,19.3034728 78.1438696,17.0614399 77.6925705,14.7671443 C77.2402853,12.4383358 76.3889636,10.3087168 75.1376193,8.37960211 L75.1376193,8.37960211 Z M109.760116,3.5563224 L108.248117,3.5563224 C107.900028,3.5563224 107.613405,3.66939369 107.387591,3.89520759 C107.16112,4.12167888 107.048706,4.40863017 107.048706,4.75540406 L107.048706,18.0521285 C107.048706,19.3034728 106.840313,20.5028831 106.423198,21.6500309 C106.006084,22.7971786 105.423306,23.8319125 104.676181,24.752589 C103.928399,25.6739228 103.033689,26.4473436 101.990738,27.0728514 C100.948115,27.6986879 99.8180596,28.1335522 98.6015571,28.3764583 L98.445098,28.3764583 C98.3409014,28.4116287 98.2537971,28.3941108 98.1844423,28.3245244 C98.0802458,28.2900114 98.0279832,28.202907 98.0279832,28.0635401 C97.9931415,27.994514 98.0099049,27.8899888 98.0802458,27.7506218 C98.1144302,27.7164375 98.2015345,27.6645036 98.3409014,27.5941627 L98.3928354,27.5941627 C99.5403118,27.3857697 100.591152,26.9864045 101.547656,26.395081 C102.503503,25.804415 103.337732,25.0832568 104.050673,24.230949 C104.762628,23.3796273 105.310235,22.4241091 105.693165,21.3630796 C106.07511,20.3033649 106.266739,19.1992762 106.266739,18.0521285 L106.266739,4.75540406 C106.266739,4.19990845 106.457383,3.73053108 106.840313,3.34760067 C107.222257,2.96565634 107.691635,2.77402679 108.248117,2.77402679 L109.760116,2.77402679 C110.038193,2.77402679 110.17756,2.91339374 110.17756,3.19147024 C110.17756,3.43470501 110.038193,3.5563224 109.760116,3.5563224 L109.760116,3.5563224 Z M95.0036547,28.4806548 C94.7600912,28.4806548 94.6388025,28.342274 94.6388025,28.0635401 C94.6388025,27.820634 94.7771834,27.6986879 95.0559173,27.6986879 C95.2984947,27.7687001 95.4207694,27.8899888 95.4207694,28.0635401 C95.4207694,28.342274 95.2817312,28.4806548 95.0036547,28.4806548 L95.0036547,28.4806548 Z M86.8694239,29.3671469 C86.7994117,29.4371591 86.6952152,29.4713435 86.5565056,29.4713435 C86.4523091,29.4713435 86.3477839,29.4194096 86.2435874,29.315213 C84.6441544,27.855147 83.4187771,26.152175 82.5674554,24.204982 C81.7154763,22.2584465 81.2901442,20.2080431 81.2901442,18.0521285 L81.2901442,4.75540406 C81.2901442,4.19990845 81.4725703,3.73053108 81.8374224,3.34760067 C82.2026033,2.96565634 82.6631059,2.77402679 83.2192589,2.77402679 L84.7835214,2.77402679 C85.0264275,2.77402679 85.1487022,2.91339374 85.1487022,3.19147024 C85.1487022,3.43470501 85.0264275,3.5563224 84.7835214,3.5563224 L83.2192589,3.5563224 C82.9063406,3.5563224 82.6368102,3.66939369 82.4109963,3.89520759 C82.184525,4.12167888 82.0721111,4.40863017 82.0721111,4.75540406 L82.0721111,18.0521285 C82.0721111,20.0686762 82.4714763,22.0066656 83.2715215,23.8660968 C84.0709092,25.7261854 85.2351492,27.3335071 86.7652274,28.6893766 L86.8694239,28.7935731 C87.0429752,29.0022948 87.0429752,29.1935957 86.8694239,29.3671469 L86.8694239,29.3671469 Z M109.760116,0.42746867 L108.248117,0.42746867 C107.030957,0.42746867 106.006084,0.844912124 105.171854,1.67914164 C104.337296,2.51337115 103.920181,3.53923022 103.920181,4.75540406 L103.920181,18.0521285 C103.920181,19.0605667 103.729538,20.0164136 103.348251,20.9199979 C102.966964,21.8242396 102.439079,22.6144239 101.763609,23.292523 C101.08814,23.9702934 100.300256,24.5008081 99.3993014,24.8827524 C98.498018,25.2656828 97.5457867,25.4563263 96.5419502,25.4563263 C95.502286,25.4563263 94.5326338,25.2656828 93.6316791,24.8827524 C92.7303957,24.5008081 91.9425123,23.9702934 91.2673714,23.292523 C90.5919019,22.6144239 90.0640167,21.8242396 89.6827298,20.9199979 C89.3014429,20.0164136 89.1114568,19.0605667 89.1114568,18.0521285 L89.1114568,4.75540406 C89.1114568,3.53923022 88.6920411,2.51337115 87.8535386,1.67914164 C87.0143786,0.844912124 86.0016674,0.42746867 84.8137614,0.42746867 L83.2412815,0.42746867 C82.0185337,0.42746867 80.996619,0.844912124 80.1755373,1.67914164 C79.3541269,2.51337115 78.9435861,3.53923022 78.9435861,4.75540406 L78.9435861,18.0521285 C78.9435861,20.4506205 79.40376,22.7189491 80.3254225,24.8567855 C81.246099,26.9946219 82.4974433,28.8635852 84.079784,30.4620321 C85.6611387,32.061465 87.5212273,33.3220128 89.6590637,34.2423606 C91.7969001,35.1640231 94.0823208,35.6245257 96.5159833,35.6245257 C98.9486597,35.6245257 101.225863,35.1640231 103.346607,34.2423606 C105.466365,33.3220128 107.326783,32.061465 108.925887,30.4620321 C110.524334,28.8635852 111.784882,26.9946219 112.706215,24.8567855 C113.626892,22.7189491 114.088052,20.4506205 114.088052,18.0521285 L114.088052,4.75540406 C114.088052,3.53923022 113.670937,2.51337115 112.836708,1.67914164 C112.002478,0.844912124 110.976619,0.42746867 109.760116,0.42746867 L109.760116,0.42746867 Z M154.550484,22.1713422 C153.993674,23.4578569 153.237674,24.5790377 152.282156,25.5345559 C151.325651,26.4910602 150.204471,27.2381853 148.918942,27.7769175 C147.632427,28.316307 146.259466,28.58518 144.799728,28.58518 L136.978087,28.58518 C136.734195,28.58518 136.612906,28.4553453 136.612906,28.1956757 C136.612906,27.9688757 136.734195,27.855147 136.978087,27.855147 L144.799728,27.855147 C146.155269,27.855147 147.423705,27.6033662 148.606024,27.0991471 C149.787356,26.5955854 150.82209,25.8997367 151.708582,25.0132446 C152.594745,24.1267525 153.298811,23.0838012 153.820122,21.8847196 C154.341762,20.6853092 154.602418,19.407998 154.602418,18.0521285 C154.602418,16.4185112 154.219488,14.8973078 153.45527,13.4895044 C152.690067,12.081701 151.647444,10.9263359 150.326745,10.0220942 L150.274483,9.96983158 C150.06609,9.83145072 150.030919,9.63982116 150.170286,9.3962577 C150.343837,9.22270641 150.535138,9.18786467 150.74386,9.29206119 C152.203926,10.3008281 153.34187,11.5692645 154.159336,13.0983566 C154.975816,14.6287635 155.384714,16.2791442 155.384714,18.0521285 C155.384714,19.5121945 155.10598,20.8858135 154.550484,22.1713422 L154.550484,22.1713422 Z M150.092057,12.811734 C150.769827,13.4895044 151.299356,14.2718 151.682615,15.1579634 C152.064559,16.0444556 152.256189,17.0091772 152.256189,18.0521285 C152.256189,19.094751 152.064559,20.0686762 151.682615,20.9719318 C151.299356,21.8765022 150.769827,22.6666865 150.092057,23.3447856 C149.414286,24.022556 148.623116,24.552742 147.719532,24.935015 C146.814961,25.3179454 145.842351,25.5085889 144.799728,25.5085889 L137.395202,25.5085889 L137.395202,10.6479307 L144.799728,10.6479307 C145.842351,10.6479307 146.814961,10.8392315 147.719532,11.2211759 C148.623116,11.6041063 149.414286,12.1339636 150.092057,12.811734 L150.092057,12.811734 Z M131.503004,3.608585 C130.842326,3.608585 130.460053,3.93925281 130.355856,4.59927364 L130.355856,30.5665573 C130.355856,30.8449625 130.216489,30.9836721 129.938741,30.9836721 C129.695178,30.9836721 129.57356,30.8449625 129.57356,30.5665573 L129.57356,4.75540406 C129.57356,4.19990845 129.755987,3.73874847 130.121167,3.37389632 C130.486348,3.00871547 130.946522,2.8262894 131.503004,2.8262894 L144.799728,2.8262894 C145.425236,2.8262894 146.051073,2.85225635 146.676909,2.90451896 C147.302417,2.95678156 147.910175,3.06985286 148.501827,3.24340415 C148.744405,3.34760067 148.831838,3.52213805 148.762483,3.76471543 C148.727312,3.86924064 148.657958,3.93925281 148.553761,3.97343715 C148.483749,4.00827889 148.397302,4.02569976 148.293105,4.02569976 L148.240843,4.02569976 L148.240843,3.97343715 C147.16305,3.73053108 146.015902,3.608585 144.799728,3.608585 L131.503004,3.608585 Z M151.473893,4.39055191 C151.751641,4.39055191 151.891008,4.52991886 151.891008,4.80766667 C151.891008,5.05123013 151.751641,5.17251882 151.473893,5.17251882 C151.23033,5.17251882 151.108712,5.05123013 151.108712,4.80766667 C151.108712,4.52991886 151.23033,4.39055191 151.473893,4.39055191 L151.473893,4.39055191 Z M161.039593,11.2211759 C160.117602,9.10141772 158.855411,7.24132913 157.253677,5.64189619 C155.651943,4.04344932 153.789225,2.78290157 151.66618,1.86156772 C149.542806,0.940891248 147.262316,0.479731276 144.825695,0.479731276 L131.509578,0.479731276 C130.325616,0.479731276 129.316192,0.896846034 128.480319,1.73140424 C127.644446,2.56563376 127.227331,3.57407196 127.227331,4.75540406 L127.227331,31.3485242 C127.227331,32.5308424 127.644446,33.5386232 128.480319,34.3728527 C129.316192,35.2070822 130.325616,35.6245257 131.509578,35.6245257 L144.825695,35.6245257 C147.262316,35.6245257 149.542806,35.1640231 151.66618,34.2423606 C153.789225,33.3220128 155.651943,32.0706685 157.253677,30.4883277 C158.855411,28.9069731 160.117602,27.0468845 161.039593,24.9087194 C161.961913,22.7712117 162.424059,20.485791 162.424059,18.0521285 C162.424059,15.6194521 161.961913,13.3419201 161.039593,11.2211759 L161.039593,11.2211759 Z" id="Fill-1"></path>
                <path d="M264.690507,3.5094504 L243.389715,3.5094504 C243.321018,3.23761911 243.225039,2.97696347 243.102107,2.72748349 L264.690507,2.72748349 C264.933084,2.72748349 265.055359,2.84942957 265.055359,3.09233564 C265.055359,3.37106954 264.933084,3.5094504 264.690507,3.5094504 L264.690507,3.5094504 Z M250.038242,11.6959438 C249.82952,11.6959438 249.690153,11.557563 249.621127,11.2788291 C249.690153,11.0010813 249.82952,10.8617143 250.038242,10.8617143 C250.246964,10.8617143 250.385344,11.0010813 250.455357,11.2788291 C250.385344,11.557563 250.246964,11.6959438 250.038242,11.6959438 L250.038242,11.6959438 Z M250.455357,30.2070958 C250.455357,30.485501 250.325193,30.6238818 250.064209,30.6238818 C249.803553,30.6238818 249.673061,30.485501 249.673061,30.2070958 L249.673061,14.8767315 C249.673061,14.5989837 249.803553,14.4596167 250.064209,14.4596167 C250.325193,14.4596167 250.455357,14.5989837 250.455357,14.8767315 L250.455357,30.2070958 Z M238.833994,3.45751649 C238.55526,3.45751649 238.41655,3.31880693 238.41655,3.04007304 C238.41655,2.95559826 238.439888,2.89084522 238.473415,2.83562435 C238.663072,2.77382957 238.86522,2.73767305 239.08183,2.73241392 C239.189971,2.78993566 239.25078,2.88854435 239.25078,3.04007304 C239.25078,3.31880693 239.111742,3.45751649 238.833994,3.45751649 L238.833994,3.45751649 Z M234.975107,3.45751649 L214.222251,3.45751649 C213.874162,3.45751649 213.58754,3.57091648 213.362054,3.79640169 C213.135254,4.02287298 213.023169,4.29174601 213.023169,4.60466425 L213.023169,30.1545045 C213.023169,30.4332384 212.900566,30.5719479 212.657988,30.5719479 C212.379583,30.5719479 212.240874,30.4332384 212.240874,30.1545045 L212.240874,4.60466425 C212.240874,4.08302428 212.431517,3.63172517 212.814447,3.24879476 C213.196392,2.86685044 213.665769,2.67522088 214.222251,2.67522088 L235.287697,2.67522088 C235.155561,2.92437217 235.051693,3.18535651 234.975107,3.45751649 L234.975107,3.45751649 Z M220.636089,15.1896497 L234.557992,15.1896497 C234.800898,15.1896497 234.922844,15.3119245 234.922844,15.5548306 C234.922844,15.8332358 234.800898,15.9716166 234.557992,15.9716166 L220.636089,15.9716166 C220.392197,15.9716166 220.270579,15.8332358 220.270579,15.5548306 C220.270579,15.3119245 220.392197,15.1896497 220.636089,15.1896497 L220.636089,15.1896497 Z M268.757787,1.63226964 C267.923557,0.798040126 266.91479,0.380925369 265.733458,0.380925369 L239.920004,0.380925369 C239.702736,0.349370588 239.481195,0.328662763 239.25078,0.328662763 L214.222251,0.328662763 C213.005091,0.328662763 211.980218,0.746106216 211.145988,1.58033573 C210.311759,2.41456525 209.894315,3.42300345 209.894315,4.60466425 L209.894315,31.1974557 C209.894315,32.4146156 210.311759,33.4398173 211.145988,34.2740468 C211.980218,35.1082763 213.005091,35.5253911 214.222251,35.5253911 L215.786513,35.5253911 C216.968174,35.5253911 217.976612,35.1082763 218.810842,34.2740468 C219.645071,33.4398173 220.062515,32.4146156 220.062515,31.1974557 L220.062515,23.0109623 L234.557992,23.0109623 C235.739653,23.0109623 236.748091,22.5941762 237.582321,21.759618 C238.41655,20.9253885 238.833994,19.9005155 238.833994,18.6833556 L238.833994,17.1187644 C238.833994,15.937761 238.41655,14.9289941 237.582321,14.0944359 C236.748091,13.2602063 235.739653,12.8430916 234.557992,12.8430916 L220.062515,12.8430916 L220.062515,10.4968622 L238.421152,10.4968622 C238.637434,10.5284169 238.858646,10.5487961 239.088075,10.5487961 L247.326832,10.5487961 L247.326832,31.250047 C247.326832,32.4317078 247.74559,33.4398173 248.58475,34.2740468 C249.423252,35.1082763 250.436621,35.5253911 251.624527,35.5253911 L253.197007,35.5253911 C254.384584,35.5253911 255.397624,35.1082763 256.236784,34.2740468 C257.075287,33.4398173 257.494702,32.4317078 257.494702,31.250047 L257.494702,10.5487961 L265.733458,10.5487961 C266.91479,10.5487961 267.923557,10.1316813 268.757787,9.29745179 C269.592016,8.46322228 270.009131,7.4380206 270.009131,6.22086067 L270.009131,4.65659816 C270.009131,3.47526605 269.592016,2.46649916 268.757787,1.63226964 L268.757787,1.63226964 Z M201.649972,3.45751649 L200.08538,3.45751649 C199.772791,3.45751649 199.494057,3.57091648 199.25148,3.79640169 C199.007587,4.02287298 198.886299,4.30982426 198.886299,4.65659816 L198.886299,21.0299137 C198.886299,21.3083189 198.764353,21.4466998 198.521447,21.4466998 C198.243041,21.4466998 198.104332,21.3083189 198.104332,21.0299137 L198.104332,4.65659816 C198.104332,4.10110254 198.294975,3.63172517 198.677577,3.24879476 C199.059521,2.86685044 199.528899,2.67522088 200.08538,2.67522088 L201.649972,2.67522088 C201.892549,2.67522088 202.014495,2.81458783 202.014495,3.09233564 C202.014495,3.3362278 201.892549,3.45751649 201.649972,3.45751649 L201.649972,3.45751649 Z M198.416921,32.0842765 C198.104332,32.0842765 197.947544,31.945567 197.947544,31.6668331 C197.947544,31.3890853 198.104332,31.250047 198.416921,31.250047 C198.694998,31.250047 198.834365,31.3890853 198.834365,31.6668331 C198.834365,31.945567 198.694998,32.0842765 198.416921,32.0842765 L198.416921,32.0842765 Z M196.644266,29.5549636 C196.609095,29.5730419 196.573925,29.6164297 196.539741,29.6854558 C196.365861,29.8248227 196.191652,29.8077306 196.018429,29.6335219 L182.148131,14.2512237 C182.078448,14.1818689 182.044263,14.0944359 182.044263,13.990568 C182.044263,13.8860428 182.096197,13.7999246 182.200394,13.7295837 C182.338775,13.5912028 182.513312,13.5912028 182.722034,13.7295837 L182.773968,13.7818463 L196.539741,29.0073567 L196.591675,29.1118819 C196.661029,29.1818941 196.696528,29.2864193 196.696528,29.4248002 C196.696528,29.4948123 196.67845,29.5382002 196.644266,29.5549636 L196.644266,29.5549636 Z M178.185377,3.45751649 L176.621114,3.45751649 C176.273354,3.45751649 175.986403,3.57091648 175.760918,3.79640169 C175.534118,4.02287298 175.422032,4.30982426 175.422032,4.65659816 L175.422032,30.4677514 C175.422032,30.7113149 175.307646,30.8326036 175.081175,30.8326036 C174.821177,30.8326036 174.691671,30.7113149 174.691671,30.4677514 L174.691671,4.65659816 C174.691671,4.10110254 174.874425,3.63172517 175.239278,3.24879476 C175.604458,2.86685044 176.064632,2.67522088 176.621114,2.67522088 L178.185377,2.67522088 C178.463124,2.67522088 178.602491,2.81458783 178.602491,3.09233564 C178.602491,3.3362278 178.463124,3.45751649 178.185377,3.45751649 L178.185377,3.45751649 Z M201.649972,0.328662763 L200.08538,0.328662763 C198.86822,0.328662763 197.843676,0.746106216 197.009118,1.58033573 C196.175217,2.41456525 195.757774,3.44042432 195.757774,4.65659816 L195.757774,17.6923382 L181.470361,1.89325397 L181.209705,1.63226964 L181.209705,1.58033573 C180.375476,0.746106216 179.366709,0.328662763 178.185377,0.328662763 L176.621114,0.328662763 C175.403954,0.328662763 174.387298,0.746106216 173.570819,1.58033573 C172.753681,2.41456525 172.345441,3.44042432 172.345441,4.65659816 L172.345441,31.1974557 C172.345441,32.4146156 172.753681,33.4398173 173.570819,34.2740468 C174.387298,35.1082763 175.403954,35.5253911 176.621114,35.5253911 L178.185377,35.5253911 C179.366709,35.5253911 180.375476,35.1082763 181.209705,34.2740468 C182.044263,33.4398173 182.461378,32.4146156 182.461378,31.1974557 L182.461378,18.1097817 L197.165577,34.3782433 C197.999478,35.1434468 198.972746,35.5253911 200.08538,35.5253911 L201.649972,35.5253911 C202.831304,35.5253911 203.839742,35.1082763 204.6743,34.2740468 C205.508201,33.4398173 205.925644,32.4146156 205.925644,31.1974557 L205.925644,4.65659816 C205.925644,3.44042432 205.508201,2.41456525 204.6743,1.58033573 C203.839742,0.746106216 202.831304,0.328662763 201.649972,0.328662763 L201.649972,0.328662763 Z" id="Fill-4"></path>
            </g>
        </g>
    </g>
</svg>