<?xml version="1.0" encoding="UTF-8"?>
<svg width="127px" height="40px" viewBox="0 0 127 40" version="1.1" xmlns="http://www.w3.org/2000/svg" xmlns:xlink="http://www.w3.org/1999/xlink">
    <title>8A6F6DE0-46B1-4B90-B454-4D456453FA7E</title>
    <g id="Page-1" stroke="none" stroke-width="1" fill="none" fill-rule="evenodd">
        <g id="swap" transform="translate(-49.000000, -37.000000)" fill="#FFFFFF">
            <g id="Group-6" transform="translate(49.000000, 37.000000)">
                <path d="M0.44360514,0.347441423 C0.791789746,0.0327645087 1.27875896,-0.0778477961 1.7287128,0.0555229696 L30.1498813,8.47937044 C30.6622351,8.63121659 31.0362659,9.07180119 31.1029582,9.60206272 L34.690635,38.1286004 C34.7834042,38.8662312 34.2606196,39.5394312 33.5229889,39.6322004 C32.7853581,39.7249696 32.1121581,39.202185 32.0193889,38.4645543 L28.5414659,10.8107396 L3.07926661,3.26389365 L4.41758965,10.3336935 L23.3257584,15.9766472 C24.038143,16.1892318 24.4433276,16.9391394 24.230743,17.651524 C24.0181122,18.3639548 23.2682507,18.7690932 22.5558199,18.5565086 L10.3845433,14.9241087 L11.7045433,20.7920163 L15.5209124,21.9873547 C15.6796355,22.0076162 15.8319432,22.0559855 15.9712355,22.128447 L25.5112352,25.1165854 C26.2207121,25.33877 26.6156968,26.0940777 26.393466,26.8035546 C26.1712352,27.5130315 25.4159737,27.9080161 24.7064968,27.6857853 L17.1899278,25.3314315 L18.57902,31.4173698 L27.6854044,34.1650928 C28.397189,34.3798928 28.8000659,35.1309543 28.5853121,35.8427389 C28.3705582,36.5545235 27.6194506,36.9574005 26.907666,36.7426466 L17.0519278,33.7687698 C16.5886816,33.6290159 16.2360663,33.251339 16.1283893,32.7795544 L14.215774,24.3998623 L10.1591741,23.129247 C9.70082028,22.9856624 9.35365106,22.6087239 9.24823568,22.1400778 L7.4263588,14.041278 L2.86234354,12.6791857 C2.38003586,12.5352319 2.01828202,12.1342011 1.92468202,11.6396165 L0.0235128435,1.59653985 C-0.0637640772,1.13541679 0.0953743801,0.662118338 0.44360514,0.347441423 Z" id="Path"></path>
            </g>
        </g>
    </g>
</svg>