<?xml version="1.0" encoding="UTF-8"?>
<svg width="127px" height="40px" viewBox="0 0 127 40" version="1.1" xmlns="http://www.w3.org/2000/svg" xmlns:xlink="http://www.w3.org/1999/xlink">
    <title>8A6F6DE0-46B1-4B90-B454-4D456453FA7E</title>
    <g id="Page-1" stroke="none" stroke-width="1" fill="none" fill-rule="evenodd">
        <g id="swap" transform="translate(-49.000000, -37.000000)" fill="#FFFFFF">
            <g id="Group-6" transform="translate(49.000000, 37.000000)">
                <path d="M0.44360514,0.347441423 C0.791789746,0.0327645087 1.27875896,-0.0778477961 1.7287128,0.0555229696 L30.1498813,8.47937044 C30.6622351,8.63121659 31.0362659,9.07180119 31.1029582,9.60206272 L34.690635,38.1286004 C34.7834042,38.8662312 34.2606196,39.5394312 33.5229889,39.6322004 C32.7853581,39.7249696 32.1121581,39.202185 32.0193889,38.4645543 L28.5414659,10.8107396 L3.07926661,3.26389365 L4.41758965,10.3336935 L23.3257584,15.9766472 C24.038143,16.1892318 24.4433276,16.9391394 24.230743,17.651524 C24.0181122,18.3639548 23.2682507,18.7690932 22.5558199,18.5565086 L10.3845433,14.9241087 L11.7045433,20.7920163 L15.5209124,21.9873547 C15.6796355,22.0076162 15.8319432,22.0559855 15.9712355,22.128447 L25.5112352,25.1165854 C26.2207121,25.33877 26.6156968,26.0940777 26.393466,26.8035546 C26.1712352,27.5130315 25.4159737,27.9080161 24.7064968,27.6857853 L17.1899278,25.3314315 L18.57902,31.4173698 L27.6854044,34.1650928 C28.397189,34.3798928 28.8000659,35.1309543 28.5853121,35.8427389 C28.3705582,36.5545235 27.6194506,36.9574005 26.907666,36.7426466 L17.0519278,33.7687698 C16.5886816,33.6290159 16.2360663,33.251339 16.1283893,32.7795544 L14.215774,24.3998623 L10.1591741,23.129247 C9.70082028,22.9856624 9.35365106,22.6087239 9.24823568,22.1400778 L7.4263588,14.041278 L2.86234354,12.6791857 C2.38003586,12.5352319 2.01828202,12.1342011 1.92468202,11.6396165 L0.0235128435,1.59653985 C-0.0637640772,1.13541679 0.0953743801,0.662118338 0.44360514,0.347441423 Z" id="Path"></path>
                <path d="M48.4097731,14.8515549 L48.4097731,25.1900161 L49.5913115,25.1900161 L49.5913115,21.9260162 L52.2940807,21.9260162 C54.8491575,21.9260162 56.3260806,20.6115547 56.3260806,18.322324 C56.3260806,16.1217087 54.8491575,14.8515549 52.2940807,14.8515549 L48.4097731,14.8515549 Z M49.5913115,15.9887856 L52.249773,15.9887856 C54.110696,15.9887856 55.1888498,16.7863241 55.1888498,18.3518625 C55.1888498,19.9617086 54.110696,20.7887855 52.249773,20.7887855 L49.5913115,20.7887855 L49.5913115,15.9887856 Z M68.731311,25.1900161 L68.731311,14.8515549 L67.5497726,14.8515549 L67.5497726,19.5186317 L61.3171574,19.5186317 L61.3171574,14.8515549 L60.1356189,14.8515549 L60.1356189,25.1900161 L61.3171574,25.1900161 L61.3171574,20.6410932 L67.5497726,20.6410932 L67.5497726,25.1900161 L68.731311,25.1900161 Z M78.1536185,14.8220164 C75.1259262,14.8220164 72.7333109,17.0964779 72.7333109,20.0207855 C72.7333109,22.9303239 75.1259262,25.2490931 78.1536185,25.2490931 C81.1665415,25.2490931 83.5591568,22.9303239 83.5591568,20.0207855 C83.5591568,17.1112471 81.1665415,14.8220164 78.1536185,14.8220164 Z M78.1536185,15.9444779 C80.4576184,15.9444779 82.3480799,17.746324 82.3480799,20.0207855 C82.3480799,22.295247 80.4576184,24.1118623 78.1536185,24.1118623 C75.8496185,24.1118623 73.9296186,22.295247 73.9296186,20.0207855 C73.9296186,17.746324 75.8496185,15.9444779 78.1536185,15.9444779 Z M94.5839257,15.9887856 L94.5839257,14.8515549 L87.5685413,14.8515549 L87.5685413,25.1900161 L94.7759257,25.1900161 L94.7759257,24.0675546 L88.7500797,24.0675546 L88.7500797,20.5229394 L93.963618,20.5229394 L93.963618,19.3857086 L88.7500797,19.3857086 L88.7500797,15.9887856 L94.5839257,15.9887856 Z M107.630695,25.1900161 L107.630695,14.8515549 L106.463925,14.8515549 L106.463925,23.1666316 L100.260849,14.8515549 L99.0350025,14.8515549 L99.0350025,25.1900161 L100.216541,25.1900161 L100.216541,16.8897087 L106.419618,25.1900161 L107.630695,25.1900161 Z M113.802848,25.1900161 L113.802848,14.8515549 L112.62131,14.8515549 L112.62131,25.1900161 L113.802848,25.1900161 Z M122.79731,19.8140163 L126.312386,14.8515549 L124.924079,14.8515549 L122.044079,18.8392471 L119.193617,14.8515549 L117.80531,14.8515549 L121.335156,19.8730932 L117.539464,25.1900161 L118.927771,25.1900161 L122.044079,20.8626316 L125.189925,25.1900161 L126.607771,25.1900161 L122.79731,19.8140163 Z" id="Shape" fill-rule="nonzero"></path>
            </g>
        </g>
    </g>
</svg>