<?xml version="1.0" encoding="UTF-8"?>
<svg width="29px" height="24px" viewBox="0 0 29 24" version="1.1" xmlns="http://www.w3.org/2000/svg" xmlns:xlink="http://www.w3.org/1999/xlink">
    <!-- Generator: sketchtool 53 (72520) - https://sketchapp.com -->
    <title>5F1F66E7-0E6D-4F63-9D82-E8351D28A785</title>
    <desc>Created with sketchtool.</desc>
    <g id="Page-1" stroke="none" stroke-width="1" fill="none" fill-rule="evenodd">
        <g id="Landing" transform="translate(-638.000000, -4071.000000)" fill="currentColor">
            <g id="03__components-/-footer" transform="translate(0.000000, 3713.000000)">
                <g id="Group" transform="translate(571.000000, 229.000000)">
                    <g id="Group-6" transform="translate(0.000000, 126.000000)">
                        <path d="M95.2177761,6.30222444 C94.4237011,7.46371121 93.4637108,8.45332926 92.3377773,9.27111043 C92.3496284,9.43703768 92.3555539,9.68592656 92.3555539,10.0177771 C92.3555539,11.5585267 92.1303712,13.0962897 91.6799978,14.6311137 C91.2296284,16.1659338 90.5451879,17.6385118 89.6266645,19.0488914 C88.7081451,20.4592671 87.614822,21.7066623 86.3466674,22.7911118 C85.0785129,23.8755617 83.5496382,24.7407381 81.7599997,25.3866673 C79.9703612,26.0325965 78.0563061,26.3555562 76.0177787,26.3555562 C72.8059095,26.3555562 69.8666799,25.4963054 67.2,23.7777786 C67.6148169,23.8251862 68.0770346,23.8488896 68.5866667,23.8488896 C71.2533446,23.8488896 73.6296202,23.0311199 75.715556,21.3955552 C74.4711036,21.371853 73.3570411,20.9896354 72.3733327,20.2488903 C71.3896242,19.5081452 70.7140757,18.5629687 70.3466667,17.4133331 C70.7377795,17.4725925 71.0992573,17.5022242 71.431111,17.5022242 C71.9407439,17.5022242 72.4444432,17.4370392 72.942221,17.3066692 C71.614807,17.0340742 70.5155599,16.3733399 69.6444445,15.3244465 C68.773329,14.2755531 68.3377778,13.0577856 68.3377778,11.6711121 L68.3377778,11.6000015 C69.1437075,12.0503749 70.0088843,12.2933343 70.9333333,12.3288916 C70.151107,11.8074076 69.5288911,11.1259299 69.0666666,10.2844466 C68.6044421,9.44295924 68.3733335,8.53037729 68.3733335,7.54666886 C68.3733335,6.50370099 68.6340715,5.53778514 69.1555554,4.64888944 C70.5896368,6.41482576 72.3348047,7.82814427 74.3911127,8.88888878 C76.4474167,9.94963728 78.6488767,10.539261 80.9955564,10.6577799 C80.9007397,10.2074065 80.8533314,9.76889218 80.8533314,9.34222495 C80.8533314,7.75406698 81.4133274,6.40000791 82.5333313,5.27999997 C83.6533393,4.15999601 85.0073983,3.6 86.5955563,3.6 C88.2548208,3.6 89.6533255,4.20443761 90.7911101,5.41333273 C92.0829708,5.16444384 93.2977716,4.70222732 94.4355562,4.02666723 C93.9970339,5.38963851 93.1555624,6.44444154 91.9111101,7.19111218 C93.0133374,7.07259328 94.1155488,6.77630003 95.2177761,6.30222444 Z" id="logo-twitter"></path>
                    </g>
                </g>
            </g>
        </g>
    </g>
</svg>