<?xml version="1.0" encoding="UTF-8"?>
<svg width="51px" height="51px" viewBox="0 0 51 51" version="1.1" xmlns="http://www.w3.org/2000/svg" xmlns:xlink="http://www.w3.org/1999/xlink">
    <title>535A4034-E95B-41B7-A71F-9155AB5553FA</title>
    <g id="Home" stroke="none" stroke-width="1" fill="none" fill-rule="evenodd">
        <g id="Look-and-feel" transform="translate(-695.000000, -989.000000)">
            <g id="logo-maltablock" transform="translate(695.000000, 989.000000)">
                <polygon id="Fill-1" fill="#FFFFFF" points="7.94635523 0.000111272727 0.375207962 4.066944 34.1506797 24.5706131 9.17259249 37.7592131 9.17259249 46.6094749 49.5459149 24.5706131"></polygon>
                <polygon id="Fill-2" fill="#FFFFFF" points="2.31041114 19.4261596 9.64400425 24.1131524 -1.87641509e-05 29.500236 6.97330265 34.033116 24.9608054 24.1131524 9.95811614 15.297756"></polygon>
                <polygon id="Fill-3" fill="#FFFFFF" opacity="0.271995908" points="6.97328389 34.0330418 6.81622794 50.90514 49.5459525 27.7190564 49.5459525 24.5705945 9.17263002 46.6094564 9.32968596 35.3787 24.9607866 26.9340273 24.9607866 24.1130782"></polygon>
                <polygon id="Fill-4" fill="#FFFFFF" opacity="0.271995908" points="2.31046743 19.4260855 2.31046743 8.1039 10.1152284 12.6584782 10.1152284 15.2978673"></polygon>
                <polygon id="Fill-5" fill="#00EF79" points="34.1507172 24.5706316 0.375245491 4.06696255 0.375245491 20.7838353 7.32717577 25.4072171 9.64398549 24.1131153 2.31039238 19.4261225 2.31039238 8.10393709 31.9455542 25.7349153"></polygon>
                <polygon id="Fill-6" fill="#00EF79" points="0 46.5879436 6.81626547 50.90514 6.97332142 34.0330418 0 29.5003473"></polygon>
            </g>
        </g>
    </g>
</svg>