<?xml version="1.0" encoding="UTF-8"?>
<svg width="25px" height="22px" viewBox="0 0 25 22" version="1.1"
  xmlns="http://www.w3.org/2000/svg"
  xmlns:xlink="http://www.w3.org/1999/xlink">
  <!-- Generator: sketchtool 53 (72520) - https://sketchapp.com -->
  <title>6B2D9A59-6135-4A15-BF8E-633F52BDA0D8</title>
  <desc>Created with sketchtool.</desc>
  <defs>
    <path d="M26.3258782,7.30555879 L19.0722014,19.1138644 L13.8990391,10.6793604 L18.0038345,3.95987041 C18.0975488,3.80992607 18.2334365,3.70683708 18.4115013,3.65060706 C18.5895624,3.59437703 18.7629381,3.58500596 18.9316281,3.62249025 L26.3258782,7.30555879 Z M26.4102212,23.1061965 C26.4102212,23.4435784 26.279019,23.6684962 26.016611,23.7809568 C25.754203,23.8934175 25.4355685,23.8559311 25.0607005,23.6684968 L19.4095809,20.8569953 L26.4102212,9.44229959 L26.4102212,23.1061965 Z M10.8063907,23.274886 C10.8063907,23.6122679 10.6939306,23.8512431 10.4690105,23.9918188 C10.2440868,24.1323946 9.98168241,24.1183372 9.68179014,23.9496463 L3.07476025,20.6601898 C2.88732587,20.5664726 2.72800909,20.4165276 2.59680503,20.2103514 C2.46560096,20.0041734 2.39999994,19.7979955 2.39999994,19.5918175 L2.39999994,4.32536737 C2.39999994,4.06295938 2.48902994,3.8802127 2.66709256,3.77712372 C2.84515533,3.67403474 3.05601559,3.67872027 3.29968036,3.79118392 L10.4408937,7.36178875 L10.8063907,7.89597219 L10.8063907,23.274886 Z M18.3412148,20.3228119 L12.0153348,17.1458135 L12.0153348,9.94836991 L18.3412148,20.3228119 Z" id="path-1"></path>
  </defs>
  <g id="Page-1" stroke="none" stroke-width="1" fill="none" fill-rule="evenodd">
    <g id="Landing" transform="translate(-776.000000, -4072.000000)">
      <g id="03__components-/-footer" transform="translate(0.000000, 3713.000000)">
        <g id="Group" transform="translate(571.000000, 229.000000)">
          <g id="Group-6" transform="translate(0.000000, 126.000000)">
            <g id="02__assets-/-logos-/-discord-copy-3" transform="translate(202.800000, 1.200000)">
              <mask id="mask-2" fill="white">
                <use xlink:href="#path-1"></use>
              </mask>
              <use id="logo-medium" fill="currentColor" xlink:href="#path-1"></use>
            </g>
          </g>
        </g>
      </g>
    </g>
  </g>
</svg>