<?xml version="1.0" encoding="UTF-8"?>
<svg width="23px" height="20px" viewBox="0 0 23 20" version="1.1"
  xmlns="http://www.w3.org/2000/svg"
  xmlns:xlink="http://www.w3.org/1999/xlink">
  <!-- Generator: sketchtool 53 (72520) - https://sketchapp.com -->
  <title>398B920A-0129-4831-A6CE-5193A4D46875</title>
  <desc>Created with sketchtool.</desc>
  <defs>
    <path id="telegram-path" d="M14.6190492,19.8836186 C14.1885081,20.3141619 13.7534859,20.740214 13.3139722,21.1617879 C12.8744586,21.5833614 12.4394399,22.0094135 12.0088953,22.4399567 C11.8474424,22.5834713 11.6815049,22.69559 11.511083,22.7763172 C11.3406576,22.857044 11.147813,22.8974067 10.9325425,22.8974067 C10.7890276,22.8794673 10.6724233,22.8391045 10.5827295,22.7763172 C10.4930323,22.7135295 10.4212766,22.6103801 10.3674589,22.4668656 C10.0445496,21.4443252 9.71716272,20.4173154 9.38528439,19.3858063 C9.05340951,18.3542951 8.71705011,17.3272857 8.37620275,16.3047436 C8.34032662,16.1971083 8.29996253,16.1163836 8.25511392,16.0625659 C8.21026531,16.0087483 8.13402508,15.9638997 8.0263898,15.9280235 C7.2370598,15.6948115 6.4567126,15.4571183 5.68532238,15.2149372 C4.91393217,14.9727561 4.13358428,14.7260973 3.34425496,14.4749437 C3.23661899,14.4390676 3.1334696,14.403188 3.03480335,14.3673084 C2.93613734,14.3314323 2.84195743,14.2865837 2.75226091,14.232766 C2.53698927,14.1071892 2.42038554,13.9502243 2.40244623,13.7618608 C2.38450693,13.5734973 2.4652326,13.4075633 2.64462562,13.2640484 C2.78814007,13.1384716 2.94062186,13.0308398 3.10207558,12.9411426 C3.26352919,12.8514454 3.42498074,12.7796896 3.58643435,12.725872 C4.57309617,12.331207 5.55974283,11.9455179 6.54640293,11.5687909 C7.53306544,11.1920674 8.51971417,10.8153474 9.50637667,10.4386239 C10.6903682,9.97219968 11.8788305,9.51027036 13.0717946,9.05281867 C14.2647586,8.59536697 15.457702,8.13791872 16.650666,7.68046702 C17.8436301,7.22301533 19.0365769,6.761086 20.2295409,6.29466183 C21.422505,5.8282411 22.6109638,5.37079629 23.7949588,4.92231363 C24.2613796,4.74291919 24.6470686,4.7608607 24.9520364,4.97613128 C25.2570077,5.19140185 25.39155,5.55018385 25.3556705,6.05248415 C25.3197909,6.37539002 25.2659732,6.69380792 25.1942175,7.0077482 C25.1224618,7.32168503 25.0507027,7.64010293 24.978947,7.96301224 C24.7277968,9.20082149 24.4676811,10.4431015 24.1985894,11.6898832 C23.9295012,12.936665 23.664901,14.183426 23.4047818,15.4302078 C23.1446626,16.6769895 22.8800589,17.923754 22.6109707,19.1705357 C22.3418825,20.4173164 22.0727943,21.6595947 21.8037061,22.8974067 C21.8037061,22.9153462 21.8037061,22.9288004 21.8037061,22.9377701 C21.8037061,22.9467395 21.8037061,22.9512244 21.8037061,22.9512244 C21.6781293,23.5252821 21.4269861,23.879578 21.0502591,24.0141228 C20.6735322,24.1486674 20.251967,24.0455182 19.7855428,23.7046714 C18.9603367,23.0947351 18.1396254,22.4892926 17.3233883,21.8883257 C16.5071477,21.2873592 15.6864399,20.6819167 14.8612303,20.0719787 C14.8253507,20.0361025 14.7894746,20.0047075 14.753595,19.9778004 C14.7177154,19.9508898 14.6728703,19.9194982 14.6190492,19.8836186 Z M10.9594495,21.4174204 C10.977391,21.4174204 10.9908445,21.4129355 10.9998136,21.4039658 C11.0087826,21.3949964 11.0132706,21.3905116 11.0132706,21.3905116 C11.0132706,21.3725721 11.0177551,21.3501485 11.0267241,21.3232397 C11.0356932,21.2963305 11.0401777,21.2739069 11.0401777,21.2559675 C11.0939953,20.6998492 11.1478129,20.1392557 11.2016306,19.5741654 C11.2554482,19.0090784 11.3002968,18.4484829 11.3361764,17.892365 C11.3541145,17.7667882 11.3899906,17.6501873 11.4438117,17.542552 C11.4976293,17.4349133 11.569385,17.3362505 11.6590822,17.2465533 C12.3945911,16.5828001 13.1256086,15.9235383 13.8521485,15.2687542 C14.5786918,14.61397 15.3052213,13.9591962 16.0317646,13.304412 C16.7583045,12.6496279 17.4848374,11.9948506 18.2113773,11.3400665 C18.9379206,10.6852823 19.6689346,10.034993 20.4044469,9.38917786 C20.5300237,9.26360108 20.6645661,9.13803117 20.808081,9.01245439 C20.9515924,8.8868776 21.0861347,8.76130769 21.2117115,8.63573091 C21.2475911,8.59985133 21.2700137,8.55500617 21.2789827,8.50118853 C21.2879518,8.44736744 21.3014088,8.39355325 21.3193468,8.33973216 C21.2655292,8.33973216 21.2161961,8.32627861 21.1713474,8.29937152 C21.1264988,8.27246097 21.0771692,8.25900743 21.0233515,8.25900743 C20.9336543,8.27694549 20.8439571,8.30385603 20.7542599,8.33973216 C20.6645661,8.37561174 20.5748689,8.42046035 20.4851751,8.47427799 C20.2878426,8.58191327 20.0949981,8.69851758 19.9066346,8.82409437 C19.7182712,8.94966771 19.5343957,9.06627203 19.3550013,9.1739073 C18.5118571,9.71208715 17.6732043,10.2412876 16.8390292,10.7615294 C16.0048506,11.2817677 15.1706858,11.8064837 14.3365072,12.3356945 C13.5023321,12.8649019 12.6681638,13.3896213 11.8339887,13.9098596 C10.9998101,14.430098 10.1701298,14.9593019 9.3449203,15.4974817 C9.23728502,15.5512994 9.17001383,15.614086 9.14310674,15.6858417 C9.11619619,15.7575974 9.12964974,15.8472947 9.18347083,15.9549299 C9.29110611,16.2778358 9.39873794,16.6097106 9.50637666,16.9505546 C9.61401194,17.2914019 9.72164378,17.6232768 9.8292825,17.9461826 C10.0266115,18.5381801 10.2194561,19.1211982 10.4078195,19.6952576 C10.596183,20.2693136 10.7800585,20.8433627 10.9594495,21.4174204 Z"></path>
  </defs>
  <g stroke="none" stroke-width="1" fill="none" fill-rule="evenodd">
    <g  transform="translate(-709.000000, -4074.000000)">
      <g transform="translate(0.000000, 3713.000000)">
        <g  transform="translate(571.000000, 229.000000)">
          <g  transform="translate(0.000000, 126.000000)">
            <g  transform="translate(135.600000, 1.200000)">
              <mask  fill="white">
                <use xlink:href="#telegram-path"></use>
              </mask>
              <use fill="currentColor" xlink:href="#telegram-path"></use>
            </g>
          </g>
        </g>
      </g>
    </g>
  </g>
</svg>