<?xml version="1.0" encoding="UTF-8"?>
<svg width="58px" height="60px" viewBox="0 0 58 60" version="1.1" xmlns="http://www.w3.org/2000/svg" xmlns:xlink="http://www.w3.org/1999/xlink">
    <!-- Generator: sketchtool 53 (72520) - https://sketchapp.com -->
    <title>F028BD3B-6F73-4E0C-A7E5-8C2EDB982AC3</title>
    <desc>Created with sketchtool.</desc>
    <g id="Page-1" stroke="none" stroke-width="1" fill="none" fill-rule="evenodd">
        <g id="Landing" transform="translate(-48.000000, -48.000000)">
            <g id="02__asssets-/-logo-maltablock" transform="translate(48.000000, 48.000000)">
                <g id="Group-7">
                    <polygon id="Fill-1" fill="#7F39D3" points="9.26875054 0.000130909088 0.437648321 4.78463981 39.8338762 28.9066025 10.6990525 44.4226018 10.6990525 54.8346741 57.7911146 28.9066025"></polygon>
                    <polygon id="Fill-2" fill="#7F39D3" points="2.694899 22.8543061 11.2489145 28.3684151 -2.18867926e-05 34.7061605 8.13376718 40.0389605 29.1146663 28.3684151 11.6152994 17.9973607"></polygon>
                    <polygon id="Fill-3" fill="#6BDDFB" points="8.13374504 40.0388727 7.9505526 59.8884001 57.791154 32.6106544 57.791154 28.9065817 10.6990959 54.8346546 10.8822883 41.622 29.1146422 31.6870908 29.1146422 28.3683271"></polygon>
                    <polygon id="Fill-4" fill="#6BDDFB" points="2.69496448 22.8542175 2.69496448 9.53399992 11.7985572 14.892327 11.7985572 17.9974905"></polygon>
                    <polygon id="Fill-5" fill="#3E2859" points="39.8339188 28.9066251 0.437692066 4.78466177 0.437692066 24.4515706 8.54652987 29.8908433 11.2488922 28.3683706 2.69487699 22.8542615 2.69487699 9.53404353 37.2617829 30.2763705"></polygon>
                    <polygon id="Fill-6" fill="#3E2859" points="0 54.8093456 7.95059617 59.8884001 8.13378862 40.038873 0 34.7062912"></polygon>
                </g>
            </g>
        </g>
    </g>
</svg>